<?xml version="1.0" encoding="UTF-8"?>
<svg version="1.1" xmlns="http://www.w3.org/2000/svg" width="1024" height="316">
<path d="M0 0 C1.56047445 0.00015913 3.12095416 0.00585397 4.68139648 0.01586914 C5.5012352 0.01728409 6.32107391 0.01869904 7.16575623 0.02015686 C9.79470406 0.0257725 12.42356797 0.0383276 15.05249023 0.05102539 C16.8304838 0.05603838 18.60847869 0.06060163 20.38647461 0.06469727 C24.75434569 0.07574701 29.12215371 0.09302208 33.48999023 0.11352539 C34.32985107 2.04820481 35.1616705 3.98637668 35.98999023 5.92602539 C36.68608398 7.54444336 36.68608398 7.54444336 37.39624023 9.19555664 C38.48999023 12.11352539 38.48999023 12.11352539 38.48999023 15.11352539 C39.47999023 15.60852539 39.47999023 15.60852539 40.48999023 16.11352539 C41.59739122 18.93571074 42.59693133 21.7394709 43.55249023 24.61352539 C44.16827188 26.42390002 44.7855338 28.23377163 45.40405273 30.04321289 C45.73566406 31.01613281 46.06727539 31.98905273 46.40893555 32.99145508 C48.73574758 39.71125459 51.19849659 46.3836316 53.64453125 53.06079102 C54.01505615 54.08108398 54.38558105 55.10137695 54.76733398 56.15258789 C55.09983154 57.06218262 55.4323291 57.97177734 55.77490234 58.90893555 C56.48999023 61.11352539 56.48999023 61.11352539 56.48999023 63.11352539 C57.14999023 63.44352539 57.80999023 63.77352539 58.48999023 64.11352539 C59.08227539 65.89453125 59.08227539 65.89453125 59.65405273 68.39086914 C62.05746938 77.70448185 65.56300683 86.65253469 68.86499023 95.67602539 C69.60805674 97.71703196 70.35063938 99.75821474 71.09277344 101.79956055 C72.69384303 106.2022647 74.29705217 110.60418171 75.90161133 115.00561523 C79.81551228 125.74707608 83.70669372 136.4967764 87.59823227 147.2463541 C89.18303101 151.6238746 90.76955114 156.00076845 92.35668945 160.37744141 C94.74069209 166.95389275 97.11865466 173.53249605 99.48999023 180.11352539 C99.82146057 181.03266724 100.15293091 181.95180908 100.4944458 182.89880371 C101.36789328 185.32579707 102.2367141 187.75437737 103.10327148 190.18383789 C103.47623604 191.21926224 103.47623604 191.21926224 103.85673523 192.27560425 C105.48999023 196.88169108 105.48999023 196.88169108 105.48999023 199.11352539 C91.29999023 199.11352539 77.10999023 199.11352539 62.48999023 199.11352539 C57.93614408 187.72891001 57.93614408 187.72891001 56.23999023 182.61352539 C55.90483398 181.61321289 55.56967773 180.61290039 55.22436523 179.58227539 C54.48999023 177.11352539 54.48999023 177.11352539 54.48999023 175.11352539 C53.82999023 174.78352539 53.16999023 174.45352539 52.48999023 174.11352539 C51.67358398 171.78540039 51.67358398 171.78540039 50.92749023 168.86352539 C50.67870117 167.90961914 50.42991211 166.95571289 50.17358398 165.97290039 C49.5493038 163.36162557 49.00882554 160.74731403 48.48999023 158.11352539 C47.70011719 158.18571289 46.91024414 158.25790039 46.09643555 158.33227539 C33.48101089 159.33787802 20.88738059 159.19099227 8.23999023 159.11352539 C3.81811795 159.0869524 -0.60371304 159.06700588 -5.02563477 159.05102539 C-6.03491028 159.04272705 -7.04418579 159.03442871 -8.08404541 159.02587891 C-9.48260773 159.02092407 -9.48260773 159.02092407 -10.90942383 159.01586914 C-11.72799866 159.01063232 -12.54657349 159.00539551 -13.38995361 159 C-15.70061147 159.02981059 -15.70061147 159.02981059 -18.51000977 160.11352539 C-19.69231351 162.90633294 -20.68235773 165.61104868 -21.61157227 168.48852539 C-21.89350433 169.32818848 -22.1754364 170.16785156 -22.46591187 171.03295898 C-23.36687378 173.72287877 -24.25147605 176.4178362 -25.13500977 179.11352539 C-26.02872685 181.80810157 -26.92574984 184.50153473 -27.82553101 187.1940918 C-28.38511253 188.87205147 -28.94056829 190.55139347 -29.49160767 192.23217773 C-31.40040508 198.00392071 -31.40040508 198.00392071 -32.51000977 199.11352539 C-33.89161091 199.20630869 -35.27789014 199.23099582 -36.66259766 199.22705078 C-37.54343521 199.22697525 -38.42427277 199.22689972 -39.33180237 199.2268219 C-40.28908737 199.22166061 -41.24637238 199.21649933 -42.23266602 199.21118164 C-43.20787704 199.20976669 -44.18308807 199.20835175 -45.18785095 199.20689392 C-48.31610119 199.20127672 -51.444281 199.18872132 -54.57250977 199.17602539 C-56.68774311 199.17101261 -58.80297757 199.16644932 -60.91821289 199.16235352 C-66.11550273 199.1513017 -71.31275122 199.13454685 -76.51000977 199.11352539 C-74.63227339 192.6705477 -72.59437813 186.31841969 -70.32250977 180.00415039 C-69.87356102 178.7475486 -69.87356102 178.7475486 -69.4155426 177.46556091 C-68.77800795 175.68277277 -68.13923438 173.90042724 -67.4992981 172.11849976 C-66.49743635 169.3285109 -65.49945508 166.53715571 -64.50195312 163.74560547 C-61.40755826 155.09906203 -58.28666317 146.46388056 -55.07641602 137.85961914 C-54.81670013 137.16138031 -54.55698425 136.46314148 -54.28939819 135.7437439 C-53.09026618 132.52131979 -51.88296093 129.3027715 -50.66040039 126.08911133 C-50.24081055 124.96666016 -49.8212207 123.84420898 -49.38891602 122.68774414 C-48.84086304 121.24274536 -48.84086304 121.24274536 -48.28173828 119.76855469 C-47.4988146 117.07500992 -47.35784504 114.9015248 -47.51000977 112.11352539 C-46.85000977 112.11352539 -46.19000977 112.11352539 -45.51000977 112.11352539 C-43.50998133 106.75896599 -41.51632363 101.40209498 -39.52856445 96.04296875 C-38.85128096 94.21972547 -38.17225296 92.39712924 -37.49145508 90.57519531 C-36.51388896 87.95813966 -35.54259482 85.33883056 -34.57250977 82.71899414 C-34.26627686 81.90327438 -33.96004395 81.08755463 -33.64453125 80.24711609 C-33.36424072 79.48655411 -33.0839502 78.72599213 -32.79516602 77.94238281 C-32.54645752 77.27397873 -32.29774902 76.60557465 -32.04150391 75.91691589 C-31.36866101 73.94726762 -31.36866101 73.94726762 -31.51000977 71.11352539 C-30.85000977 71.11352539 -30.19000977 71.11352539 -29.51000977 71.11352539 C-29.33500443 70.51106491 -29.15999908 69.90860443 -28.97969055 69.28788757 C-27.14488796 63.0610758 -25.10717453 56.93447874 -22.92797852 50.82055664 C-22.59131668 49.8714592 -22.25465485 48.92236176 -21.90779114 47.94450378 C-21.19886902 45.94824344 -20.48870267 43.95242455 -19.77734375 41.95703125 C-18.70700001 38.95266373 -17.64243131 35.94629439 -16.57836914 32.93969727 C-4.93981394 0.15977001 -4.93981394 0.15977001 0 0 Z M13.48999023 59.11352539 C11.51219928 64.73609708 9.53675497 70.35948559 7.56347656 75.98364258 C6.89192028 77.89662928 6.21972437 79.80939156 5.546875 81.72192383 C4.57961295 84.47166067 3.61465726 87.22219749 2.65014648 89.97290039 C2.19853905 91.25435944 2.19853905 91.25435944 1.73780823 92.56170654 C1.45759323 93.3622345 1.17737823 94.16276245 0.88867188 94.98754883 C0.64218399 95.68926208 0.39569611 96.39097534 0.14173889 97.11395264 C-0.50107082 99.08610059 -1.00692681 101.10119356 -1.51000977 103.11352539 C-3.82000977 110.04352539 -6.13000977 116.97352539 -8.51000977 124.11352539 C6.66999023 124.11352539 21.84999023 124.11352539 37.48999023 124.11352539 C36.11967122 117.94708982 34.68197747 112.42801801 32.42749023 106.61352539 C32.1587207 105.89938477 31.88995117 105.18524414 31.61303711 104.44946289 C30.48943437 101.02305923 30.48943437 101.02305923 28.48999023 98.11352539 C28.35592773 97.41485352 28.22186523 96.71618164 28.08374023 95.99633789 C27.36707187 92.51672439 26.208362 89.32488062 24.98999023 85.98852539 C22.48999023 79.11352539 22.48999023 79.11352539 21.48999023 76.11352539 C20.49999023 76.11352539 19.50999023 76.11352539 18.48999023 76.11352539 C19.14999023 75.78352539 19.80999023 75.45352539 20.48999023 75.11352539 C18.58082822 66.65175376 18.58082822 66.65175376 14.48999023 59.11352539 C14.15999023 59.11352539 13.82999023 59.11352539 13.48999023 59.11352539 Z " fill="#141413" transform="translate(175.510009765625,49.886474609375)"/>
<path d="M0 0 C1.04865234 0.11690186 2.09730469 0.23380371 3.17773438 0.35424805 C17.89805481 2.26359281 30.34565145 7.81992262 40.375 18.875 C41.365 19.865 41.365 19.865 42.375 20.875 C43.26289724 22.72478592 44.08821387 24.60499683 44.875 26.5 C45.2978125 27.50289062 45.720625 28.50578125 46.15625 29.5390625 C48.56832403 36.14134206 49.69844468 42.31903295 49.98901367 49.2956543 C50.04540276 50.4641808 50.04540276 50.4641808 50.10293102 51.6563139 C50.43533565 59.06949955 50.52501504 66.4803931 50.54366493 73.90009499 C50.5536161 77.03862352 50.57948882 80.1769741 50.60398388 83.31541729 C50.64894581 89.10829075 50.68736421 94.90105225 50.70092773 100.6940918 C50.71109166 104.77403559 50.7405906 108.85346409 50.78224754 112.93320274 C50.79440609 114.46588918 50.79970712 115.99864861 50.79744911 117.53138161 C50.78770142 126.29082275 51.52769291 133.9682003 54.52018738 142.32206726 C55.375 144.875 55.375 144.875 55.375 147.875 C42.175 147.875 28.975 147.875 15.375 147.875 C14.385 145.4 14.385 145.4 13.375 142.875 C12.715 142.875 12.055 142.875 11.375 142.875 C11.045 141.885 10.715 140.895 10.375 139.875 C7.9973531 141.04051319 5.66824405 142.26116562 3.34375 143.53125 C-4.27860942 147.58277438 -10.8900775 150.22973897 -19.625 150.875 C-20.51574219 150.94460937 -21.40648437 151.01421875 -22.32421875 151.0859375 C-36.0560721 151.60714653 -49.93375048 147.53628639 -60.8828125 139.14453125 C-64.89038448 135.35381923 -68.16122063 130.81391256 -70.625 125.875 C-70.625 125.215 -70.625 124.555 -70.625 123.875 C-71.615 123.875 -72.605 123.875 -73.625 123.875 C-73.295 121.565 -72.965 119.255 -72.625 116.875 C-74.11 117.37 -74.11 117.37 -75.625 117.875 C-76.69810858 114.60314447 -76.51763102 112.44552408 -75.6875 109.125 C-75.49285156 108.32578125 -75.29820312 107.5265625 -75.09765625 106.703125 C-74.94167969 106.09984375 -74.78570312 105.4965625 -74.625 104.875 C-75.285 104.875 -75.945 104.875 -76.625 104.875 C-76.295 103.885 -75.965 102.895 -75.625 101.875 C-75.295 101.875 -74.965 101.875 -74.625 101.875 C-74.45484375 101.1015625 -74.2846875 100.328125 -74.109375 99.53125 C-71.00255294 86.17852542 -65.74175366 76.07050566 -53.70751953 68.52978516 C-34.82384952 57.54339618 -11.99266369 57.17569464 9.375 57.875 C9.51321979 45.56556618 9.51321979 45.56556618 4.375 34.875 C-1.47137137 30.28431578 -8.86116144 29.38349285 -16.0859375 30.12890625 C-20.83947138 31.00538841 -24.36124495 32.14499423 -27.625 35.875 C-29.18220455 39.13721158 -30.41552024 42.47185597 -31.625 45.875 C-32.12 46.865 -32.12 46.865 -32.625 47.875 C-45.495 47.875 -58.365 47.875 -71.625 47.875 C-69.63228155 27.94781553 -69.63228155 27.94781553 -63.625 22.875 C-62.55105118 21.59283661 -61.48955842 20.30018541 -60.4375 19 C-51.42511772 8.68626079 -38.92051505 3.21996605 -25.625 0.875 C-24.77808594 0.65585938 -23.93117188 0.43671875 -23.05859375 0.2109375 C-15.18242114 -1.53000079 -7.96339253 -0.91826847 0 0 Z M-30.5625 89.3125 C-34.58448378 94.30951015 -35.07663367 98.90065772 -34.93359375 105.15234375 C-34.4465815 109.44914804 -33.33748151 111.46701041 -30.625 114.875 C-24.63678884 119.51515414 -18.03850606 120.59701103 -10.625 119.875 C-2.25781266 118.11620946 4.43966847 115.14263191 9.375 107.875 C9.91983066 104.98592204 9.91983066 104.98592204 9.765625 101.91796875 C9.75273437 100.80615234 9.73984375 99.69433594 9.7265625 98.54882812 C9.69304687 97.39833984 9.65953125 96.24785156 9.625 95.0625 C9.60695313 93.89267578 9.58890625 92.72285156 9.5703125 91.51757812 C9.5232644 88.6358822 9.45753709 85.75586203 9.375 82.875 C4.89605679 82.75787989 0.41751286 82.6874392 -4.0625 82.625 C-5.95258789 82.57472656 -5.95258789 82.57472656 -7.88085938 82.5234375 C-16.99129501 82.42828935 -23.46985747 83.42711577 -30.5625 89.3125 Z M-74.625 110.875 C-74.625 112.525 -74.625 114.175 -74.625 115.875 C-74.295 115.875 -73.965 115.875 -73.625 115.875 C-73.625 114.225 -73.625 112.575 -73.625 110.875 C-73.955 110.875 -74.285 110.875 -74.625 110.875 Z " fill="#151414" transform="translate(428.625,101.125)"/>
<path d="M0 0 C0.99 0.495 0.99 0.495 2 1 C11.94432111 11.93276267 16.16963186 24.9700747 16.625 39.4375 C16.66367187 40.50935547 16.70234375 41.58121094 16.7421875 42.68554688 C17.18098932 57.22085733 17.05101219 71.77041012 16.96337891 86.31030273 C16.91713272 95.60362814 16.92549752 104.87681191 17.40234375 114.16015625 C17.43686646 114.88086304 17.47138916 115.60156982 17.50695801 116.34411621 C17.82755136 121.69452014 19.00429315 126.0541178 21 131 C21 131.99 21 132.98 21 134 C21.66 134.33 22.32 134.66 23 135 C19.56395235 136.71802382 15.61561104 136.1196618 11.8359375 136.09765625 C10.92872955 136.0962413 10.02152161 136.09482635 9.08682251 136.09336853 C6.18284845 136.08776096 3.27895085 136.07520718 0.375 136.0625 C-1.59114472 136.05748598 -3.55729065 136.0529229 -5.5234375 136.04882812 C-10.3489879 136.03778906 -15.17448097 136.02051935 -20 136 C-20 132.37 -20 128.74 -20 125 C-21.03447266 125.79664063 -21.03447266 125.79664063 -22.08984375 126.609375 C-35.60461584 136.76862754 -48.83487631 140.62853401 -65.7578125 138.53515625 C-77.61362556 136.74291576 -88.68502724 132.90700145 -97 123.8125 C-99.25221151 120.64532757 -101.00412685 117.35576192 -102.75390625 113.890625 C-103.93201783 111.67927931 -103.93201783 111.67927931 -107 111 C-106.7215625 109.9171875 -106.7215625 109.9171875 -106.4375 108.8125 C-105.96973981 105.80547022 -106.39142145 103.95532751 -107 101 C-108.11878631 87.57456428 -104.91773672 75.511529 -96.40625 65.0390625 C-82.31273338 49.81540539 -61.0234368 46.88493912 -41.375 46.1171875 C-35.24971346 45.92984496 -29.12761301 45.91133679 -23 46 C-23.22577123 32.98404529 -23.22577123 32.98404529 -29.625 22.1875 C-35.56138269 17.75714543 -42.60355772 17.56920081 -49.70703125 18.52734375 C-54.07790092 19.4283237 -56.98373961 20.98373961 -60.125 24.125 C-61.75954581 26.63130358 -62.92775353 28.9504054 -64.1171875 31.6796875 C-64.47151855 32.48905762 -64.82584961 33.29842773 -65.19091797 34.13232422 C-65.45791504 34.74865723 -65.72491211 35.36499023 -66 36 C-71.37514905 36.04935509 -76.75016685 36.08569802 -82.12548828 36.10986328 C-83.95493873 36.11993484 -85.78437303 36.13359276 -87.61376953 36.15087891 C-90.23994934 36.17507677 -92.86591675 36.18647132 -95.4921875 36.1953125 C-96.72350906 36.21079636 -96.72350906 36.21079636 -97.97970581 36.22659302 C-99.98789142 36.22699184 -101.99555382 36.1224954 -104 36 C-104.66 35.34 -105.32 34.68 -106 34 C-105.34 34 -104.68 34 -104 34 C-103.9175 32.72125 -103.835 31.4425 -103.75 30.125 C-102.31774259 17.77661856 -95.48678762 8.35661693 -86.0859375 0.55859375 C-63.02441567 -16.67276807 -23.36777761 -16.94163877 0 0 Z M-61.8125 76.375 C-65.4028785 80.6834542 -67.29122408 83.3211304 -67 89 C-67.18433594 89.6290625 -67.36867188 90.258125 -67.55859375 90.90625 C-68.34913199 94.6560597 -66.79495841 97.72875332 -65 101 C-61.18488162 105.47715363 -56.55730822 107.65415059 -50.75 108.21875 C-41.08828806 108.5810642 -33.75166522 106.37293925 -26.59375 99.81640625 C-23.426435 96.20659871 -22.7517202 93.34518229 -22.8046875 88.578125 C-22.81435547 87.04091797 -22.81435547 87.04091797 -22.82421875 85.47265625 C-22.84097656 84.40917969 -22.85773438 83.34570312 -22.875 82.25 C-22.88402344 81.17105469 -22.89304687 80.09210938 -22.90234375 78.98046875 C-22.92588695 76.32008722 -22.95877201 73.66015664 -23 71 C-27.49987562 70.91232257 -31.999529 70.85937991 -36.5 70.8125 C-37.7684375 70.78736328 -39.036875 70.76222656 -40.34375 70.73632812 C-48.69059064 70.67111843 -55.19934439 70.79055749 -61.8125 76.375 Z M-19 132 C-18 134 -18 134 -18 134 Z " fill="#151414" transform="translate(829,113)"/>
<path d="M0 0 C10.40748661 9.10378871 14.71127352 21.09013524 15.83984375 34.609375 C16.18996627 42.53619276 16.07337834 50.47793571 16.03515625 58.41015625 C16.03141971 60.70086035 16.02857577 62.99156606 16.02658081 65.28227234 C16.0189948 71.27119466 15.99939023 77.26001784 15.97717285 83.24890137 C15.95660527 89.37620707 15.94755589 95.503529 15.9375 101.63085938 C15.91613901 113.62374817 15.88099859 125.61653778 15.83984375 137.609375 C2.63984375 137.609375 -10.56015625 137.609375 -24.16015625 137.609375 C-24.18988525 133.3711792 -24.18988525 133.3711792 -24.22021484 129.04736328 C-24.28727293 119.68753406 -24.36490996 110.3278138 -24.44768333 100.96811104 C-24.49752166 95.29614814 -24.54385249 89.62420275 -24.58203125 83.95214844 C-24.61904186 78.47315131 -24.66544391 72.99430523 -24.71821976 67.51543808 C-24.73668014 65.43041522 -24.75181856 63.34536009 -24.76350021 61.26028824 C-24.78050641 58.32848051 -24.80957477 55.39701246 -24.84130859 52.46533203 C-24.84346878 51.61296463 -24.84562897 50.76059723 -24.84785461 49.88240051 C-24.9541482 42.14051682 -25.30258302 34.85695771 -30.16015625 28.609375 C-30.16015625 27.949375 -30.16015625 27.289375 -30.16015625 26.609375 C-33.13015625 26.279375 -36.10015625 25.949375 -39.16015625 25.609375 C-38.17015625 24.619375 -38.17015625 24.619375 -37.16015625 23.609375 C-45.10926082 21.67740339 -54.37566504 22.17068125 -61.515625 26.39453125 C-67.70871582 30.96947482 -69.50882426 36.32457685 -71.16015625 43.609375 C-71.51858032 46.84089884 -71.5331051 50.01733131 -71.48486328 53.26586914 C-71.48369507 54.17280518 -71.48252686 55.07974121 -71.48132324 56.01416016 C-71.47420701 58.97452724 -71.44606954 61.93429586 -71.41796875 64.89453125 C-71.40982364 66.96292099 -71.40316364 69.03131706 -71.3979187 71.09971619 C-71.38088063 76.51626775 -71.34665728 81.93256471 -71.30786133 87.34899902 C-71.24841073 96.0495625 -71.21488477 104.75025895 -71.18209457 113.45095634 C-71.16809649 116.49178284 -71.14652227 119.53248496 -71.12380981 122.57325745 C-71.11379421 124.42131466 -71.10392863 126.26937269 -71.09423828 128.11743164 C-71.08592987 128.9677446 -71.07762146 129.81805756 -71.06906128 130.69413757 C-71.06147313 132.66610258 -71.10511291 134.63816375 -71.16015625 136.609375 C-73.02978343 138.47900218 -75.70679186 137.73823803 -78.19396973 137.74832153 C-79.03874878 137.7462973 -79.88352783 137.74427307 -80.75390625 137.7421875 C-81.61576538 137.74314423 -82.47762451 137.74410095 -83.36560059 137.74508667 C-85.19148837 137.7457685 -87.01737856 137.74391404 -88.84326172 137.73974609 C-91.64816703 137.73439786 -94.4529122 137.73969099 -97.2578125 137.74609375 C-99.02734411 137.74543297 -100.79687561 137.74415181 -102.56640625 137.7421875 C-103.4111853 137.74421173 -104.25596436 137.74623596 -105.12634277 137.74832153 C-111.04520594 137.72432531 -111.04520594 137.72432531 -112.16015625 136.609375 C-112.25668221 134.73642716 -112.28202891 132.85979256 -112.28041077 130.98435974 C-112.28178543 129.76293274 -112.2831601 128.54150574 -112.28457642 127.2830658 C-112.28103681 125.91714453 -112.27740199 124.55122352 -112.27368164 123.18530273 C-112.27339977 121.75660199 -112.27355749 120.3279011 -112.27412415 118.89920044 C-112.27441214 115.00887528 -112.26851512 111.11858069 -112.26155019 107.22826266 C-112.25531695 103.16699295 -112.25471288 99.10572261 -112.25352478 95.04444885 C-112.25041137 87.34858567 -112.24219786 79.65273662 -112.23217529 71.95687968 C-112.22101444 63.19765386 -112.21550378 54.43842739 -112.21047986 45.67919624 C-112.20001525 27.65591284 -112.18166966 9.63264883 -112.16015625 -8.390625 C-99.29015625 -8.390625 -86.42015625 -8.390625 -73.16015625 -8.390625 C-71.71807684 -5.50646617 -72.06620738 -2.97340972 -72.09765625 0.234375 C-72.10667969 1.42289063 -72.11570312 2.61140625 -72.125 3.8359375 C-72.13660156 4.75117187 -72.14820313 5.66640625 -72.16015625 6.609375 C-71.721875 6.10148437 -71.28359375 5.59359375 -70.83203125 5.0703125 C-53.29360888 -13.96529227 -20.17693353 -16.14154683 0 0 Z " fill="#151515" transform="translate(616.16015625,111.390625)"/>
<path d="M0 0 C12.87 0 25.74 0 39 0 C41.00046182 2.00046182 40.15913113 6.04127423 40.16494751 8.78222656 C40.17059105 9.607253 40.1762346 10.43227943 40.18204916 11.28230667 C40.19985865 14.06840675 40.21049562 16.85448917 40.22119141 19.640625 C40.23239959 21.62927484 40.24403149 23.61792232 40.25605774 25.60656738 C40.28747105 31.02374087 40.31254668 36.440927 40.3362546 41.85813904 C40.3617795 47.51383969 40.392132 53.16951475 40.42172241 58.82519531 C40.47060869 68.32485497 40.51528004 77.82452781 40.55761719 87.32421875 C40.60670522 98.32429704 40.66300182 109.32432107 40.72303832 120.32434464 C40.77429328 129.75018806 40.8216512 139.17604515 40.86572587 148.6019249 C40.89209328 154.23971636 40.91984217 159.87749212 40.9510994 165.51525879 C40.98026215 170.8141904 41.00455235 176.11312193 41.02499962 181.41209412 C41.03333817 183.36287757 41.04340887 185.31365445 41.05528831 187.26441956 C41.07115763 189.91554262 41.08091051 192.56661701 41.08901978 195.21777344 C41.09514145 196.00015003 41.10126312 196.78252663 41.10757029 197.5886116 C41.10981108 199.3927627 41.06068708 201.19686848 41 203 C40.67 203.33 40.34 203.66 40 204 C26.8 204 13.6 204 0 204 C0 136.68 0 69.36 0 0 Z " fill="#151414" transform="translate(295,45)"/>
<path d="M0 0 C13.2 0 26.4 0 40 0 C40 48.18 40 96.36 40 146 C26.8 146 13.6 146 0 146 C0 97.82 0 49.64 0 0 Z " fill="#151514" transform="translate(664,103)"/>
<path d="M0 0 C5.92320556 3.3733499 9.36940939 8.89508669 11.33203125 15.328125 C12.4938623 22.97039143 10.78889124 29.03863888 6.33203125 35.328125 C1.35024151 40.67443594 -4.4189756 42.9673664 -11.66796875 43.328125 C-18.62584278 42.95888459 -23.6862369 40.09571 -28.66796875 35.328125 C-33.36058649 29.69969621 -34.01808499 24.53860775 -33.94921875 17.40234375 C-33.31169075 10.43380852 -29.37593819 5.27752877 -24.66796875 0.328125 C-23.67796875 -0.001875 -22.68796875 -0.331875 -21.66796875 -0.671875 C-20.78109375 -1.0225 -19.89421875 -1.373125 -18.98046875 -1.734375 C-11.95535652 -3.72261431 -6.59245909 -2.87597293 0 0 Z " fill="#498BB3" transform="translate(906.66796875,209.671875)"/>
<path d="M0 0 C4.32136454 4.08777727 6.11669059 9.20380774 7 15 C6.72024359 21.14561672 5.11771179 26.34048402 1 31 C-6.06810066 36.25466877 -12.1880149 38.00214733 -21 37 C-28.12397596 34.75931362 -32.3102019 31.42739024 -36 25 C-37.06375135 21.80874596 -37.13335484 19.47529029 -37.125 16.125 C-37.12757813 15.09632812 -37.13015625 14.06765625 -37.1328125 13.0078125 C-36.82164918 5.96087852 -36.82164918 5.96087852 -34.36328125 3.0859375 C-23.3368178 -6.11328343 -12.01268152 -9.58284366 0 0 Z " fill="#151414" transform="translate(700,55)"/>
<path d="M0 0 C0.33 0 0.66 0 1 0 C1 33 1 66 1 100 C-11.87 100 -24.74 100 -38 100 C-38.17576239 87.68273826 -38.34289622 75.36544285 -38.49477577 63.04786301 C-38.56564328 57.32853131 -38.64031479 51.60930167 -38.72363281 45.89013672 C-38.80387654 40.37244548 -38.87418934 34.85470941 -38.93757248 29.33679962 C-38.96352706 27.22999649 -38.99308027 25.12323456 -39.02626419 23.0165329 C-39.07207721 20.06931773 -39.10517648 17.12221653 -39.13525391 14.17480469 C-39.1517952 13.30086563 -39.16833649 12.42692657 -39.18537903 11.52650452 C-39.19104385 10.72166122 -39.19670868 9.91681793 -39.20254517 9.08758545 C-39.2117631 8.39070995 -39.22098103 7.69383446 -39.23047829 6.97584152 C-38.9586415 4.64544233 -38.1484266 3.02914709 -37 1 C-36.22382714 3.75317587 -35.87592555 6.1923128 -35.87974548 9.04962158 C-35.87837082 9.84605072 -35.87699615 10.64247986 -35.87557983 11.46304321 C-35.87917511 12.32763153 -35.88277039 13.19221985 -35.88647461 14.08300781 C-35.88632858 15.00042755 -35.88618256 15.91784729 -35.8860321 16.86306763 C-35.88672834 19.89311087 -35.89450725 22.92309251 -35.90234375 25.953125 C-35.90420896 28.05491095 -35.90563238 30.15669734 -35.90663147 32.25848389 C-35.91044856 37.78883058 -35.92027199 43.31915099 -35.93133545 48.8494873 C-35.94156691 54.49340459 -35.94613281 60.13732612 -35.95117188 65.78125 C-35.96189495 76.85418007 -35.97948525 87.92708374 -36 99 C-24.12 99 -12.24 99 0 99 C0 66.33 0 33.66 0 0 Z " fill="#040303" transform="translate(630,148)"/>
<path d="M0 0 C0.99 0.495 0.99 0.495 2 1 C3.3769494 22.03555009 2.7083213 42.95273846 2 64 C0 62 0 62 -0.24050903 59.4057312 C-0.23606781 58.30874908 -0.23162659 57.21176697 -0.22705078 56.08154297 C-0.22689972 54.84040741 -0.22674866 53.59927185 -0.22659302 52.32052612 C-0.216379 50.9610783 -0.205947 49.6016321 -0.1953125 48.2421875 C-0.19158284 46.85499271 -0.18873565 45.46779529 -0.18673706 44.08059692 C-0.17909684 40.42759949 -0.15944516 36.77476083 -0.1373291 33.12182617 C-0.11687896 29.39504138 -0.10773713 25.66823096 -0.09765625 21.94140625 C-0.07619951 14.62753175 -0.04205903 7.31378811 0 0 Z " fill="#070606" transform="translate(476,168)"/>
<path d="M0 0 C0.556875 0.268125 1.11375 0.53625 1.6875 0.8125 C0.32625 1.5859375 0.32625 1.5859375 -1.0625 2.375 C-4.6773191 4.85911739 -7.01123977 7.59436994 -8.3125 11.8125 C-9.02175493 17.55167513 -9.43327056 23.55169591 -6.6875 28.8125 C-2.93557929 33.55176826 0.80785209 36.91026097 6.6875 38.8125 C6.6875 39.1425 6.6875 39.4725 6.6875 39.8125 C1.2318219 39.58981926 -1.76308374 38.38111616 -5.734375 34.59765625 C-10.83258469 28.83062202 -11.97862967 23.35528725 -11.69921875 15.71484375 C-10.94298816 10.03929498 -6.89986241 -0.5594483 0 0 Z " fill="#3F718F" transform="translate(884.3125,211.1875)"/>
<path d="M0 0 C1.32 0.66 2.64 1.32 4 2 C4 2.66 4 3.32 4 4 C-10.19 4 -24.38 4 -39 4 C-39 3.01 -39 2.02 -39 1 C-19.695 1.495 -19.695 1.495 0 2 C0 1.34 0 0.68 0 0 Z " fill="#202020" transform="translate(277,245)"/>
<path d="M0 0 C0.66 1.32 1.32 2.64 2 4 C-2.34116939 5.09917077 -6.48802432 5.04602521 -10.92578125 4.87890625 C-12.04716743 4.84348976 -12.04716743 4.84348976 -13.19120789 4.80735779 C-15.56518574 4.7311443 -17.93880193 4.64693985 -20.3125 4.5625 C-21.92771702 4.50923685 -23.54295139 4.45649678 -25.15820312 4.40429688 C-29.10569522 4.27558696 -33.05288262 4.13971256 -37 4 C-37 3.34 -37 2.68 -37 2 C-24.79 2 -12.58 2 0 2 C0 1.34 0 0.68 0 0 Z " fill="#040304" transform="translate(395,144)"/>
<path d="M0 0 C0.33 0 0.66 0 1 0 C1 2.31 1 4.62 1 7 C9.58 7 18.16 7 27 7 C26.67 7.66 26.34 8.32 26 9 C22.0495047 9.19224376 18.09865416 9.37096681 14.14697266 9.53710938 C12.80240434 9.59555475 11.45799202 9.65771076 10.11376953 9.72363281 C8.18306663 9.81767443 6.2516797 9.89732692 4.3203125 9.9765625 C3.15773926 10.02893066 1.99516602 10.08129883 0.79736328 10.13525391 C-2 10 -2 10 -4 8 C-3.34 8 -2.68 8 -2 8 C-1.855625 7.236875 -1.71125 6.47375 -1.5625 5.6875 C-1 3 -1 3 0 0 Z " fill="#050405" transform="translate(727,139)"/>
<path d="M0 0 C5.00635298 0.24421234 7.82026472 1.81931526 11.38671875 5.140625 C16.33686667 10.84588023 17.45555167 16.73937691 17.140625 24.12890625 C17.07101562 25.05509766 17.07101562 25.05509766 17 26 C16.34 26 15.68 26 15 26 C14.90203125 25.13117188 14.8040625 24.26234375 14.703125 23.3671875 C13.60424926 14.43487158 13.60424926 14.43487158 9 7 C8.360625 6.2575 7.72125 5.515 7.0625 4.75 C4.81362804 2.84186621 2.78404723 1.92801574 0 1 C0 0.67 0 0.34 0 0 Z " fill="#4E7F9E" transform="translate(901,209)"/>
<path d="M0 0 C4.056106 1.80271378 6.44663043 4.15685651 8.3515625 8.1953125 C9.83821773 14.62554418 8.67956291 21.49983303 8 28 C3.05 28 -1.9 28 -7 28 C-7 27.67 -7 27.34 -7 27 C-2.38 27 2.24 27 7 27 C6.77094057 14.92062347 6.77094057 14.92062347 2 4 C1.34 3.67 0.68 3.34 0 3 C0 2.01 0 1.02 0 0 Z " fill="#272727" transform="translate(431,132)"/>
<path d="M0 0 C-3.15193483 2.10128988 -3.63530834 2.23453429 -7.16796875 2.01171875 C-8.38516602 1.94114258 -8.38516602 1.94114258 -9.62695312 1.86914062 C-10.47193359 1.80919922 -11.31691406 1.74925781 -12.1875 1.6875 C-13.01314453 1.63916016 -13.83878906 1.59082031 -14.68945312 1.54101562 C-19.82568203 1.22126615 -24.90051515 0.68816577 -30 0 C-30 -0.33 -30 -0.66 -30 -1 C-19.61185046 -2.53898512 -10.31703177 -1.98540818 0 0 Z " fill="#202020" transform="translate(601,103)"/>
<path d="M0 0 C-2.45000738 2.88704861 -2.85168137 2.9863294 -6.94140625 3.36328125 C-8.48186327 3.36195441 -10.02237384 3.34445282 -11.5625 3.3125 C-12.34302734 3.31572266 -13.12355469 3.31894531 -13.92773438 3.32226562 C-19.73283019 3.26716981 -19.73283019 3.26716981 -22 1 C-19.45847098 0.83096719 -16.91681012 0.66470573 -14.375 0.5 C-13.30572266 0.42845703 -13.30572266 0.42845703 -12.21484375 0.35546875 C-8.13492439 0.09345558 -4.09108781 -0.05162256 0 0 Z " fill="#0B0B0B" transform="translate(420,248)"/>
<path d="M0 0 C-6.36019622 3.97512264 -14.78423845 3.13307757 -22 3 C-21.34 2.01 -20.68 1.02 -20 0 C-17.48832573 -0.41613538 -15.21286311 -0.64888918 -12.6875 -0.75 C-10.71330078 -0.86601562 -10.71330078 -0.86601562 -8.69921875 -0.984375 C-5.577153 -0.99756218 -3.00690468 -0.76772034 0 0 Z " fill="#212120" transform="translate(789,249)"/>
<path d="M0 0 C2.58099426 0.76588681 4.61002277 1.72534548 7 3 C4.10089716 3.86688859 1.88547169 4.0458562 -1.109375 3.66015625 C-2.24052734 3.5199707 -2.24052734 3.5199707 -3.39453125 3.37695312 C-4.17183594 3.27318359 -4.94914063 3.16941406 -5.75 3.0625 C-6.54277344 2.96259766 -7.33554687 2.86269531 -8.15234375 2.75976562 C-10.10240371 2.51307129 -12.05132586 2.2574122 -14 2 C-9.53444222 -0.97703852 -5.23947824 -0.50281502 0 0 Z " fill="#0D0C0C" transform="translate(576,131)"/>
<path d="M0 0 C0.33 0 0.66 0 1 0 C1 4.95 1 9.9 1 15 C0.34 14.34 -0.32 13.68 -1 13 C-1.33 14.32 -1.66 15.64 -2 17 C-3.42944945 14.64561267 -4.08661261 13.51967567 -3.625 10.75 C-3.41875 10.1725 -3.2125 9.595 -3 9 C-2.34 9 -1.68 9 -1 9 C-1.020625 7.700625 -1.04125 6.40125 -1.0625 5.0625 C-1.08399454 3.70834367 -1.07148199 2.35243917 -1 1 C-0.67 0.67 -0.34 0.34 0 0 Z " fill="#040303" transform="translate(356,202)"/>
<path d="M0 0 C2.62697064 -0.22137393 5.00893964 -0.28162025 7.625 -0.1875 C8.33140625 -0.17396484 9.0378125 -0.16042969 9.765625 -0.14648438 C11.51074128 -0.1111104 13.25546608 -0.05730221 15 0 C15.33 0.66 15.66 1.32 16 2 C12.38132441 3.2062252 9.07493749 3.10816918 5.3125 3.0625 C4.61060547 3.05798828 3.90871094 3.05347656 3.18554688 3.04882812 C1.45699462 3.03706927 -0.27151365 3.01913454 -2 3 C-1.34 2.01 -0.68 1.02 0 0 Z " fill="#080707" transform="translate(175,50)"/>
<path d="M0 0 C0.66 0 1.32 0 2 0 C6.59225513 11.52164009 6.59225513 11.52164009 6 17 C2.12135341 13.12135341 0.1299305 7.85150964 -0.25 2.4375 C-0.1675 1.633125 -0.085 0.82875 0 0 Z " fill="#0E0E0E" transform="translate(255,180)"/>
<path d="M0 0 C0.99 0.495 0.99 0.495 2 1 C2 1.66 2 2.32 2 3 C2.66 3.33 3.32 3.66 4 4 C3.34 4 2.68 4 2 4 C2.99 7.63 3.98 11.26 5 15 C4.01 15 3.02 15 2 15 C-0.59227518 10.13948404 -0.18689553 5.34728867 0 0 Z " fill="#0A0A0A" transform="translate(759,199)"/>
<path d="M0 0 C3.63 0 7.26 0 11 0 C11.33 0.99 11.66 1.98 12 3 C7.05 3 2.1 3 -3 3 C-2.01 2.67 -1.02 2.34 0 2 C0 1.34 0 0.68 0 0 Z " fill="#1D1D1D" transform="translate(191,50)"/>
<path d="M0 0 C0.66 0.33 1.32 0.66 2 1 C-6.84771574 8.79441624 -6.84771574 8.79441624 -12.875 9.1875 C-13.57625 9.125625 -14.2775 9.06375 -15 9 C-12.8013935 6.8013935 -10.85501265 5.84499875 -8.0625 4.5 C-5.20399156 3.1191594 -2.64929721 1.76619814 0 0 Z " fill="#0F0E0E" transform="translate(436,239)"/>
<path d="M0 0 C5.94 0.33 11.88 0.66 18 1 C18 1.33 18 1.66 18 2 C12.27959989 2.8320582 6.77759884 3.12036664 1 3 C0.67 2.01 0.34 1.02 0 0 Z " fill="#1F211F" transform="translate(783,101)"/>
<path d="M0 0 C-3.20308667 3.76833726 -7.63580589 5.81790294 -12 8 C-11.875 6.25 -11.875 6.25 -11 4 C-7.31618907 0.98597288 -4.80562023 -0.56536709 0 0 Z " fill="#0E0D0E" transform="translate(756,108)"/>
<path d="M0 0 C5.94 0.33 11.88 0.66 18 1 C18 1.33 18 1.66 18 2 C11.565 2.495 11.565 2.495 5 3 C5 2.67 5 2.34 5 2 C3.35 1.67 1.7 1.34 0 1 C0 0.67 0 0.34 0 0 Z " fill="#262622" transform="translate(417,101)"/>
<path d="M0 0 C0.99 0.99 1.98 1.98 3 3 C-0.625 8.875 -0.625 8.875 -4 10 C-3.52449439 8.51965236 -3.04448784 7.04074979 -2.5625 5.5625 C-2.29566406 4.73878906 -2.02882812 3.91507813 -1.75390625 3.06640625 C-1 1 -1 1 0 0 Z " fill="#1C1C1C" transform="translate(172,50)"/>
<path d="M0 0 C0.33 0 0.66 0 1 0 C1.06058594 0.59167969 1.12117188 1.18335938 1.18359375 1.79296875 C1.62012371 5.90978208 2.08671346 9.95544533 3 14 C-0.0390862 11.09304798 -0.96910803 9.86497512 -1.125 5.5 C-1 2 -1 2 0 0 Z " fill="#070706" transform="translate(392,199)"/>
<path d="M0 0 C0.99 0 1.98 0 3 0 C4.75747614 4.50353262 5.19294408 8.17639811 5 13 C2.53698577 10.53698577 2.23233479 8.72639964 1.375 5.375 C1.11460937 4.37210938 0.85421875 3.36921875 0.5859375 2.3359375 C0.39257812 1.56507813 0.19921875 0.79421875 0 0 Z " fill="#0C0C0C" transform="translate(471,128)"/>
<path d="M0 0 C1.8871875 0.0309375 1.8871875 0.0309375 3.8125 0.0625 C4.1425 0.7225 4.4725 1.3825 4.8125 2.0625 C-1.6225 2.5575 -1.6225 2.5575 -8.1875 3.0625 C-6.45706736 -0.39836529 -3.47359009 -0.0569441 0 0 Z " fill="#477A97" transform="translate(895.1875,206.9375)"/>
<path d="M0 0 C0.66 0 1.32 0 2 0 C2.5345256 1.24420647 3.05208611 2.49570936 3.5625 3.75 C3.85253906 4.44609375 4.14257812 5.1421875 4.44140625 5.859375 C5.07831803 8.30012784 4.80248831 9.6403655 4 12 C4 11.01 4 10.02 4 9 C3.34 9 2.68 9 2 9 C1.34 6.03 0.68 3.06 0 0 Z " fill="#1C1D1D" transform="translate(839,129)"/>
<path d="M0 0 C3 4 3 4 2.6875 7.75 C2.460625 8.8225 2.23375 9.895 2 11 C1.01 11 0.02 11 -1 11 C-0.67 7.37 -0.34 3.74 0 0 Z " fill="#0E0E0F" transform="translate(704,66)"/>
<path d="M0 0 C4.87362847 0.45336079 7.39042389 1.7089159 11 5 C10.67 5.99 10.34 6.98 10 8 C9.278125 7.21625 8.55625 6.4325 7.8125 5.625 C5.16700959 3.15587562 3.39626389 2.06739722 0 1 C0 0.67 0 0.34 0 0 Z " fill="#457999" transform="translate(901,209)"/>
<path d="M0 0 C0.79148437 -0.01417969 1.58296875 -0.02835937 2.3984375 -0.04296875 C4.625 0.1875 4.625 0.1875 7.625 2.1875 C5.83491533 2.40901549 4.04281838 2.61432213 2.25 2.8125 C1.25226563 2.92851562 0.25453125 3.04453125 -0.7734375 3.1640625 C-1.63195312 3.17179688 -2.49046875 3.17953125 -3.375 3.1875 C-4.035 2.5275 -4.695 1.8675 -5.375 1.1875 C-3.79539731 -0.39210269 -2.17963184 0.01763456 0 0 Z " fill="#060504" transform="translate(417.375,127.8125)"/>
<path d="M0 0 C1.32 0.33 2.64 0.66 4 1 C-0.455 3.97 -0.455 3.97 -5 7 C-3 2 -3 2 0 0 Z " fill="#0E0E0E" transform="translate(380,110)"/>
<path d="M0 0 C1.65 0 3.3 0 5 0 C5.66 1.98 6.32 3.96 7 6 C4.69 5.01 2.38 4.02 0 3 C0 2.01 0 1.02 0 0 Z " fill="#1C1C1C" transform="translate(204,50)"/>
<path d="M0 0 C0.66 0.99 1.32 1.98 2 3 C1.3125 6.125 1.3125 6.125 0 9 C-0.99 9.33 -1.98 9.66 -3 10 C-2.01 6.7 -1.02 3.4 0 0 Z " fill="#1F1F1F" transform="translate(137,143)"/>
<path d="M0 0 C-0.33 0.99 -0.66 1.98 -1 3 C-4.3 2.01 -7.6 1.02 -11 0 C-11 -0.33 -11 -0.66 -11 -1 C-6.70700357 -2.26264601 -4.12168689 -1.62950412 0 0 Z " fill="#1B1B1A" transform="translate(431,131)"/>
<path d="M0 0 C2 4 2 4 1.3125 6.6875 C0 9 0 9 -3 10 C-2.01 6.7 -1.02 3.4 0 0 Z " fill="#1D1C1C" transform="translate(116,200)"/>
<path d="M0 0 C2.75383923 1.37691962 3.51483101 3.36720042 5 6 C4.01 6.495 4.01 6.495 3 7 C1.35 5.35 -0.3 3.7 -2 2 C-1.34 1.34 -0.68 0.68 0 0 Z " fill="#232323" transform="translate(829,113)"/>
<path d="M0 0 C0.99 0 1.98 0 3 0 C3 1.65 3 3.3 3 5 C1.35 4.67 -0.3 4.34 -2 4 C-1.34 3.67 -0.68 3.34 0 3 C0 2.01 0 1.02 0 0 Z " fill="#0B0B0A" transform="translate(480,243)"/>
<path d="M0 0 C0.99 0 1.98 0 3 0 C3.33 2.64 3.66 5.28 4 8 C0 3.375 0 3.375 0 0 Z " fill="#0C0C0D" transform="translate(272,230)"/>
<path d="M0 0 C1.32 0 2.64 0 4 0 C3.40138258 2.35171131 2.73075648 4.6859378 2 7 C1.01 7.495 1.01 7.495 0 8 C0 5.36 0 2.72 0 0 Z " fill="#0A0A0A" transform="translate(360,129)"/>
<path d="M0 0 C1.45922693 0.11409593 2.91740598 0.24165544 4.375 0.375 C5.59316406 0.47941406 5.59316406 0.47941406 6.8359375 0.5859375 C9 1 9 1 11 3 C10.01 3.33 9.02 3.66 8 4 C8 3.34 8 2.68 8 2 C5.69 2.33 3.38 2.66 1 3 C0.67 2.01 0.34 1.02 0 0 Z " fill="#282726" transform="translate(683,49)"/>
<path d="M0 0 C3.24732932 1.62366466 3.70155136 4.75387839 5 8 C4.01 8 3.02 8 2 8 C0.23537317 4.91190305 0 3.76687864 0 0 Z " fill="#0C0B0B" transform="translate(726,223)"/>
<path d="M0 0 C1.32 0 2.64 0 4 0 C2.70700306 2.88437779 1.34058637 4.87219421 -1 7 C-1.66 6.67 -2.32 6.34 -3 6 C-2.34 5.34 -1.68 4.68 -1 4 C-0.3574765 1.93125966 -0.3574765 1.93125966 0 0 Z " fill="#090808" transform="translate(434,211)"/>
<path d="M0 0 C0.33 0.66 0.66 1.32 1 2 C0.06421005 4.35981813 -0.93347808 6.69631264 -2 9 C-2.66 8.01 -3.32 7.02 -4 6 C-3.25 3.375 -3.25 3.375 -2 1 C-1.34 0.67 -0.68 0.34 0 0 Z " fill="#090808" transform="translate(360,187)"/>
<path d="M0 0 C1.98 0 3.96 0 6 0 C5.01 0.66 4.02 1.32 3 2 C2.01 1.34 1.02 0.68 0 0 Z " fill="#18180C" transform="translate(568,134)"/>
<path d="M0 0 C0.66 0.66 1.32 1.32 2 2 C1.67 2.99 1.34 3.98 1 5 C0.67 3.35 0.34 1.7 0 0 Z " fill="#240808" transform="translate(721,217)"/>
<path d="M0 0 C1.32 0 2.64 0 4 0 C4 0.66 4 1.32 4 2 C2.68 1.34 1.36 0.68 0 0 Z " fill="#313131" transform="translate(692,49)"/>
<path d="M0 0 C0.33 0 0.66 0 1 0 C1 1.65 1 3.3 1 5 C0.67 5 0.34 5 0 5 C0 3.35 0 1.7 0 0 Z " fill="#000000" transform="translate(720,201)"/>
<path d="M0 0 C0.66 0 1.32 0 2 0 C2 0.66 2 1.32 2 2 C1.01 1.67 0.02 1.34 -1 1 C-0.67 0.67 -0.34 0.34 0 0 Z " fill="#1B1B0A" transform="translate(209,171)"/>
<path d="M0 0 C1 4 1 4 1 4 Z " fill="#35C9C9" transform="translate(919,227)"/>
<path d="M0 0 C4 1 4 1 4 1 Z " fill="#151515" transform="translate(790,217)"/>
<path d="M0 0 C4 1 4 1 4 1 Z " fill="#000000" transform="translate(181,172)"/>
<path d="M0 0 C0.99 0.495 0.99 0.495 2 1 C1.67 1.66 1.34 2.32 1 3 C0.67 2.01 0.34 1.02 0 0 Z " fill="#25250F" transform="translate(433,138)"/>
<path d="M0 0 C1 4 1 4 1 4 Z " fill="#2F2F2F" transform="translate(168,51)"/>
<path d="M0 0 C0.99 0.495 0.99 0.495 2 1 C1.01 1.495 1.01 1.495 0 2 C0 1.34 0 0.68 0 0 Z " fill="#636363" transform="translate(97,246)"/>
<path d="" fill="#2A2A2A" transform="translate(0,0)"/>
<path d="" fill="#000000" transform="translate(0,0)"/>
<path d="M0 0 C0.33 0.66 0.66 1.32 1 2 C0.34 1.67 -0.32 1.34 -1 1 C-0.67 0.67 -0.34 0.34 0 0 Z " fill="#000000" transform="translate(371,170)"/>
<path d="M0 0 C0.33 0.66 0.66 1.32 1 2 C0.34 1.67 -0.32 1.34 -1 1 C-0.67 0.67 -0.34 0.34 0 0 Z " fill="#1C1C1C" transform="translate(802,140)"/>
<path d="M0 0 C3 1 3 1 3 1 Z " fill="#000000" transform="translate(425,133)"/>
<path d="" fill="#151515" transform="translate(0,0)"/>
<path d="M0 0 C3 1 3 1 3 1 Z " fill="#000000" transform="translate(422,132)"/>
<path d="M0 0 C3 1 3 1 3 1 Z " fill="#1C1C1C" transform="translate(415,131)"/>
<path d="M0 0 C0.33 0.66 0.66 1.32 1 2 C0.34 1.67 -0.32 1.34 -1 1 C-0.67 0.67 -0.34 0.34 0 0 Z " fill="#000000" transform="translate(193,122)"/>
<path d="" fill="#000000" transform="translate(0,0)"/>
<path d="M0 0 C2 1 2 1 2 1 Z " fill="#000000" transform="translate(769,253)"/>
<path d="M0 0 C2 1 2 1 2 1 Z " fill="#000000" transform="translate(401,253)"/>
<path d="M0 0 C2 1 2 1 2 1 Z " fill="#2A2A2A" transform="translate(414,252)"/>
<path d="M0 0 C2 1 2 1 2 1 Z " fill="#000000" transform="translate(794,248)"/>
<path d="" fill="#2A2A2A" transform="translate(0,0)"/>
<path d="" fill="#555555" transform="translate(0,0)"/>
<path d="" fill="#2A2A2A" transform="translate(0,0)"/>
<path d="" fill="#000000" transform="translate(0,0)"/>
<path d="" fill="#000000" transform="translate(0,0)"/>
<path d="" fill="#FFFFFF" transform="translate(0,0)"/>
<path d="" fill="#6A9494" transform="translate(0,0)"/>
<path d="" fill="#2A2A00" transform="translate(0,0)"/>
<path d="M0 0 C2 1 2 1 2 1 Z " fill="#2A2A2A" transform="translate(419,218)"/>
<path d="M0 0 C2 1 2 1 2 1 Z " fill="#2A2A2A" transform="translate(424,217)"/>
<path d="M0 0 C2 1 2 1 2 1 Z " fill="#000000" transform="translate(421,217)"/>
<path d="" fill="#000000" transform="translate(0,0)"/>
<path d="" fill="#000000" transform="translate(0,0)"/>
<path d="" fill="#000000" transform="translate(0,0)"/>
<path d="" fill="#000000" transform="translate(0,0)"/>
<path d="" fill="#003F3F" transform="translate(0,0)"/>
<path d="" fill="#000000" transform="translate(0,0)"/>
<path d="M0 0 C2 1 2 1 2 1 Z " fill="#000000" transform="translate(758,161)"/>
<path d="" fill="#000000" transform="translate(0,0)"/>
<path d="M0 0 C2 1 2 1 2 1 Z " fill="#000000" transform="translate(575,135)"/>
<path d="M0 0 C2 1 2 1 2 1 Z " fill="#4A4A4A" transform="translate(563,135)"/>
<path d="M0 0 C2 1 2 1 2 1 Z " fill="#000000" transform="translate(790,132)"/>
<path d="M0 0 C2 1 2 1 2 1 Z " fill="#000000" transform="translate(411,132)"/>
<path d="" fill="#000000" transform="translate(0,0)"/>
<path d="" fill="#000000" transform="translate(0,0)"/>
<path d="M0 0 C2 1 2 1 2 1 Z " fill="#000000" transform="translate(621,114)"/>
<path d="M0 0 C2 1 2 1 2 1 Z " fill="#2A2A2A" transform="translate(751,106)"/>
<path d="M0 0 C2 1 2 1 2 1 Z " fill="#3F3F3F" transform="translate(816,105)"/>
<path d="" fill="#000000" transform="translate(0,0)"/>
<path d="" fill="#00FFFF" transform="translate(0,0)"/>
<path d="" fill="#000000" transform="translate(0,0)"/>
<path d="" fill="#000000" transform="translate(0,0)"/>
<path d="" fill="#000000" transform="translate(0,0)"/>
<path d="" fill="#7F7F7F" transform="translate(0,0)"/>
<path d="" fill="#000000" transform="translate(0,0)"/>
<path d="" fill="#000000" transform="translate(0,0)"/>
<path d="" fill="#000000" transform="translate(0,0)"/>
<path d="" fill="#000000" transform="translate(0,0)"/>
<path d="" fill="#000000" transform="translate(0,0)"/>
<path d="" fill="#7F7F7F" transform="translate(0,0)"/>
<path d="" fill="#555555" transform="translate(0,0)"/>
<path d="" fill="#000000" transform="translate(0,0)"/>
<path d="" fill="#555555" transform="translate(0,0)"/>
<path d="" fill="#7F7F00" transform="translate(0,0)"/>
<path d="" fill="#00FFFF" transform="translate(0,0)"/>
<path d="" fill="#000000" transform="translate(0,0)"/>
<path d="" fill="#00FFFF" transform="translate(0,0)"/>
<path d="" fill="#000000" transform="translate(0,0)"/>
<path d="" fill="#000000" transform="translate(0,0)"/>
<path d="" fill="#000000" transform="translate(0,0)"/>
<path d="" fill="#3F3F3F" transform="translate(0,0)"/>
<path d="" fill="#550055" transform="translate(0,0)"/>
<path d="" fill="#7F7F7F" transform="translate(0,0)"/>
<path d="" fill="#000000" transform="translate(0,0)"/>
<path d="" fill="#000000" transform="translate(0,0)"/>
<path d="" fill="#000000" transform="translate(0,0)"/>
<path d="" fill="#555555" transform="translate(0,0)"/>
<path d="" fill="#000000" transform="translate(0,0)"/>
<path d="" fill="#000000" transform="translate(0,0)"/>
<path d="" fill="#000000" transform="translate(0,0)"/>
<path d="" fill="#000000" transform="translate(0,0)"/>
<path d="" fill="#000000" transform="translate(0,0)"/>
<path d="" fill="#7F7F7F" transform="translate(0,0)"/>
<path d="" fill="#000000" transform="translate(0,0)"/>
<path d="" fill="#000000" transform="translate(0,0)"/>
<path d="" fill="#000000" transform="translate(0,0)"/>
<path d="" fill="#000000" transform="translate(0,0)"/>
<path d="" fill="#000000" transform="translate(0,0)"/>
<path d="" fill="#000000" transform="translate(0,0)"/>
<path d="" fill="#000000" transform="translate(0,0)"/>
<path d="" fill="#000000" transform="translate(0,0)"/>
<path d="" fill="#000000" transform="translate(0,0)"/>
<path d="" fill="#000000" transform="translate(0,0)"/>
<path d="" fill="#000000" transform="translate(0,0)"/>
<path d="" fill="#000000" transform="translate(0,0)"/>
<path d="" fill="#000000" transform="translate(0,0)"/>
<path d="" fill="#000000" transform="translate(0,0)"/>
<path d="" fill="#000000" transform="translate(0,0)"/>
<path d="" fill="#FFFFFF" transform="translate(0,0)"/>
<path d="" fill="#000000" transform="translate(0,0)"/>
<path d="" fill="#000000" transform="translate(0,0)"/>
<path d="" fill="#000000" transform="translate(0,0)"/>
<path d="" fill="#000000" transform="translate(0,0)"/>
<path d="" fill="#000000" transform="translate(0,0)"/>
<path d="" fill="#000000" transform="translate(0,0)"/>
<path d="" fill="#000000" transform="translate(0,0)"/>
<path d="" fill="#000000" transform="translate(0,0)"/>
<path d="" fill="#000000" transform="translate(0,0)"/>
<path d="" fill="#000000" transform="translate(0,0)"/>
<path d="" fill="#000000" transform="translate(0,0)"/>
<path d="" fill="#000000" transform="translate(0,0)"/>
<path d="" fill="#000000" transform="translate(0,0)"/>
<path d="" fill="#555555" transform="translate(0,0)"/>
<path d="" fill="#000000" transform="translate(0,0)"/>
<path d="" fill="#000000" transform="translate(0,0)"/>
<path d="" fill="#000000" transform="translate(0,0)"/>
<path d="" fill="#000000" transform="translate(0,0)"/>
<path d="" fill="#000000" transform="translate(0,0)"/>
<path d="" fill="#000000" transform="translate(0,0)"/>
<path d="" fill="#000000" transform="translate(0,0)"/>
<path d="" fill="#000000" transform="translate(0,0)"/>
<path d="" fill="#000000" transform="translate(0,0)"/>
<path d="" fill="#000000" transform="translate(0,0)"/>
<path d="" fill="#000000" transform="translate(0,0)"/>
<path d="" fill="#000000" transform="translate(0,0)"/>
<path d="" fill="#000000" transform="translate(0,0)"/>
<path d="" fill="#000000" transform="translate(0,0)"/>
<path d="" fill="#000000" transform="translate(0,0)"/>
<path d="" fill="#000000" transform="translate(0,0)"/>
<path d="" fill="#000000" transform="translate(0,0)"/>
<path d="" fill="#000000" transform="translate(0,0)"/>
<path d="" fill="#000000" transform="translate(0,0)"/>
<path d="" fill="#000000" transform="translate(0,0)"/>
<path d="" fill="#000000" transform="translate(0,0)"/>
<path d="" fill="#000000" transform="translate(0,0)"/>
<path d="" fill="#000000" transform="translate(0,0)"/>
<path d="" fill="#000000" transform="translate(0,0)"/>
<path d="" fill="#000000" transform="translate(0,0)"/>
<path d="" fill="#000000" transform="translate(0,0)"/>
<path d="" fill="#000000" transform="translate(0,0)"/>
<path d="" fill="#000000" transform="translate(0,0)"/>
<path d="" fill="#000000" transform="translate(0,0)"/>
<path d="" fill="#000000" transform="translate(0,0)"/>
<path d="" fill="#000000" transform="translate(0,0)"/>
<path d="" fill="#000000" transform="translate(0,0)"/>
<path d="" fill="#000000" transform="translate(0,0)"/>
<path d="" fill="#000000" transform="translate(0,0)"/>
<path d="" fill="#000000" transform="translate(0,0)"/>
<path d="" fill="#000000" transform="translate(0,0)"/>
<path d="" fill="#000000" transform="translate(0,0)"/>
<path d="" fill="#555500" transform="translate(0,0)"/>
<path d="" fill="#000000" transform="translate(0,0)"/>
<path d="" fill="#000000" transform="translate(0,0)"/>
<path d="" fill="#000000" transform="translate(0,0)"/>
<path d="" fill="#000000" transform="translate(0,0)"/>
<path d="" fill="#000000" transform="translate(0,0)"/>
<path d="" fill="#000000" transform="translate(0,0)"/>
<path d="" fill="#000000" transform="translate(0,0)"/>
<path d="" fill="#555555" transform="translate(0,0)"/>
<path d="" fill="#000000" transform="translate(0,0)"/>
<path d="" fill="#000000" transform="translate(0,0)"/>
<path d="" fill="#000000" transform="translate(0,0)"/>
<path d="" fill="#000000" transform="translate(0,0)"/>
<path d="" fill="#000000" transform="translate(0,0)"/>
<path d="" fill="#000000" transform="translate(0,0)"/>
<path d="" fill="#000000" transform="translate(0,0)"/>
<path d="" fill="#000000" transform="translate(0,0)"/>
<path d="" fill="#000000" transform="translate(0,0)"/>
<path d="" fill="#000000" transform="translate(0,0)"/>
<path d="" fill="#000000" transform="translate(0,0)"/>
<path d="" fill="#000000" transform="translate(0,0)"/>
<path d="" fill="#000000" transform="translate(0,0)"/>
<path d="" fill="#000000" transform="translate(0,0)"/>
<path d="" fill="#000000" transform="translate(0,0)"/>
<path d="" fill="#000000" transform="translate(0,0)"/>
<path d="" fill="#000000" transform="translate(0,0)"/>
<path d="" fill="#000000" transform="translate(0,0)"/>
<path d="" fill="#000000" transform="translate(0,0)"/>
<path d="" fill="#555555" transform="translate(0,0)"/>
<path d="" fill="#000000" transform="translate(0,0)"/>
<path d="" fill="#000000" transform="translate(0,0)"/>
<path d="" fill="#000000" transform="translate(0,0)"/>
<path d="" fill="#000000" transform="translate(0,0)"/>
<path d="" fill="#000000" transform="translate(0,0)"/>
<path d="" fill="#000000" transform="translate(0,0)"/>
<path d="" fill="#000000" transform="translate(0,0)"/>
<path d="" fill="#000000" transform="translate(0,0)"/>
<path d="" fill="#000000" transform="translate(0,0)"/>
<path d="" fill="#555555" transform="translate(0,0)"/>
<path d="" fill="#000000" transform="translate(0,0)"/>
<path d="" fill="#3F3F3F" transform="translate(0,0)"/>
<path d="" fill="#7F7F7F" transform="translate(0,0)"/>
<path d="" fill="#000000" transform="translate(0,0)"/>
<path d="" fill="#000000" transform="translate(0,0)"/>
<path d="" fill="#000000" transform="translate(0,0)"/>
<path d="" fill="#000000" transform="translate(0,0)"/>
<path d="" fill="#000000" transform="translate(0,0)"/>
<path d="" fill="#000000" transform="translate(0,0)"/>
<path d="" fill="#000000" transform="translate(0,0)"/>
<path d="" fill="#555555" transform="translate(0,0)"/>
<path d="" fill="#000000" transform="translate(0,0)"/>
<path d="" fill="#000000" transform="translate(0,0)"/>
<path d="" fill="#000000" transform="translate(0,0)"/>
<path d="" fill="#000000" transform="translate(0,0)"/>
<path d="" fill="#000000" transform="translate(0,0)"/>
<path d="" fill="#000000" transform="translate(0,0)"/>
<path d="" fill="#555555" transform="translate(0,0)"/>
<path d="" fill="#000000" transform="translate(0,0)"/>
<path d="" fill="#000000" transform="translate(0,0)"/>
<path d="" fill="#000000" transform="translate(0,0)"/>
<path d="" fill="#000000" transform="translate(0,0)"/>
<path d="" fill="#000000" transform="translate(0,0)"/>
<path d="" fill="#000000" transform="translate(0,0)"/>
<path d="" fill="#000000" transform="translate(0,0)"/>
<path d="" fill="#000000" transform="translate(0,0)"/>
<path d="" fill="#000000" transform="translate(0,0)"/>
<path d="" fill="#000000" transform="translate(0,0)"/>
<path d="" fill="#000000" transform="translate(0,0)"/>
<path d="" fill="#000000" transform="translate(0,0)"/>
<path d="" fill="#000000" transform="translate(0,0)"/>
<path d="" fill="#000000" transform="translate(0,0)"/>
<path d="" fill="#000000" transform="translate(0,0)"/>
<path d="" fill="#555555" transform="translate(0,0)"/>
<path d="" fill="#555555" transform="translate(0,0)"/>
<path d="" fill="#000000" transform="translate(0,0)"/>
<path d="" fill="#7F7F7F" transform="translate(0,0)"/>
<path d="" fill="#000000" transform="translate(0,0)"/>
<path d="" fill="#000000" transform="translate(0,0)"/>
<path d="" fill="#7F7F7F" transform="translate(0,0)"/>
<path d="" fill="#000000" transform="translate(0,0)"/>
</svg>
